<svg width="25" height="25" viewBox="0 0 25 25" fill="none" xmlns="http://www.w3.org/2000/svg">
<path d="M5.50793 13.6154H16.6779L11.7979 18.4954C11.4079 18.8854 11.4079 19.5254 11.7979 19.9154C12.1879 20.3054 12.8179 20.3054 13.2079 19.9154L19.7979 13.3254C20.1879 12.9354 20.1879 12.3054 19.7979 11.9154L13.2179 5.31543C13.0311 5.12818 12.7775 5.02295 12.5129 5.02295C12.2484 5.02295 11.9948 5.12818 11.8079 5.31543C11.4179 5.70543 11.4179 6.33543 11.8079 6.72543L16.6779 11.6154H5.50793C4.95793 11.6154 4.50793 12.0654 4.50793 12.6154C4.50793 13.1654 4.95793 13.6154 5.50793 13.6154Z" fill="#37474F"/>
<mask id="mask0" mask-type="alpha" maskUnits="userSpaceOnUse" x="4" y="5" width="17" height="16">
<path d="M5.50793 13.6154H16.6779L11.7979 18.4954C11.4079 18.8854 11.4079 19.5254 11.7979 19.9154C12.1879 20.3054 12.8179 20.3054 13.2079 19.9154L19.7979 13.3254C20.1879 12.9354 20.1879 12.3054 19.7979 11.9154L13.2179 5.31543C13.0311 5.12818 12.7775 5.02295 12.5129 5.02295C12.2484 5.02295 11.9948 5.12818 11.8079 5.31543C11.4179 5.70543 11.4179 6.33543 11.8079 6.72543L16.6779 11.6154H5.50793C4.95793 11.6154 4.50793 12.0654 4.50793 12.6154C4.50793 13.1654 4.95793 13.6154 5.50793 13.6154Z" fill="white"/>
</mask>
<g mask="url(#mask0)">
</g>
</svg>
